<?xml version="1.0" encoding="UTF-8" standalone="no"?>
<!-- Created with Inkscape (http://www.inkscape.org/) -->

<svg
   version="1.1"
   id="svg2"
   width="1066.6667"
   height="1066.6667"
   viewBox="0 0 1066.6667 1066.6667"
   sodipodi:docname="logo.ai"
   xmlns:inkscape="http://www.inkscape.org/namespaces/inkscape"
   xmlns:sodipodi="http://sodipodi.sourceforge.net/DTD/sodipodi-0.dtd"
   xmlns="http://www.w3.org/2000/svg"
   xmlns:svg="http://www.w3.org/2000/svg">
  <defs
     id="defs6">
    <clipPath
       clipPathUnits="userSpaceOnUse"
       id="clipPath16">
      <path
         d="M 0,800 H 800 V 0 H 0 Z"
         id="path14" />
    </clipPath>
    <linearGradient
       x1="0"
       y1="0"
       x2="1"
       y2="0"
       gradientUnits="userSpaceOnUse"
       gradientTransform="matrix(36.939106,0,0,-36.939106,443.76425,439.25421)"
       spreadMethod="pad"
       id="linearGradient50">
      <stop
         style="stop-opacity:1;stop-color:#fff11d"
         offset="0"
         id="stop38" />
      <stop
         style="stop-opacity:1;stop-color:#fbcc00"
         offset="0.13312686"
         id="stop40" />
      <stop
         style="stop-opacity:1;stop-color:#fbcc00"
         offset="0.280899"
         id="stop42" />
      <stop
         style="stop-opacity:1;stop-color:#f0932e"
         offset="0.668539"
         id="stop44" />
      <stop
         style="stop-opacity:1;stop-color:#e9652d"
         offset="0.88764"
         id="stop46" />
      <stop
         style="stop-opacity:1;stop-color:#e4352b"
         offset="1"
         id="stop48" />
    </linearGradient>
    <linearGradient
       x1="0"
       y1="0"
       x2="1"
       y2="0"
       gradientUnits="userSpaceOnUse"
       gradientTransform="matrix(584.8844,-63.186958,-63.186958,-584.8844,-24.413017,372.55475)"
       spreadMethod="pad"
       id="linearGradient76">
      <stop
         style="stop-opacity:1;stop-color:#2f9c3c"
         offset="0"
         id="stop66" />
      <stop
         style="stop-opacity:1;stop-color:#2f9c3c"
         offset="0.318627"
         id="stop68" />
      <stop
         style="stop-opacity:1;stop-color:#2f9c3c"
         offset="0.478758"
         id="stop70" />
      <stop
         style="stop-opacity:1;stop-color:#6eb12d"
         offset="0.827134"
         id="stop72" />
      <stop
         style="stop-opacity:1;stop-color:#6eb12d"
         offset="1"
         id="stop74" />
    </linearGradient>
    <linearGradient
       x1="0"
       y1="0"
       x2="1"
       y2="0"
       gradientUnits="userSpaceOnUse"
       gradientTransform="matrix(355.19876,-38.373272,-38.373272,-355.19876,184.9603,333.06531)"
       spreadMethod="pad"
       id="linearGradient102">
      <stop
         style="stop-opacity:1;stop-color:#2f9c3c"
         offset="0"
         id="stop92" />
      <stop
         style="stop-opacity:1;stop-color:#2f9c3c"
         offset="0.318627"
         id="stop94" />
      <stop
         style="stop-opacity:1;stop-color:#2f9c3c"
         offset="0.478758"
         id="stop96" />
      <stop
         style="stop-opacity:1;stop-color:#6eb12d"
         offset="0.827134"
         id="stop98" />
      <stop
         style="stop-opacity:1;stop-color:#6eb12d"
         offset="1"
         id="stop100" />
    </linearGradient>
    <linearGradient
       x1="0"
       y1="0"
       x2="1"
       y2="0"
       gradientUnits="userSpaceOnUse"
       gradientTransform="matrix(584.21143,-63.11425,-63.11425,-584.21143,-22.440939,387.15677)"
       spreadMethod="pad"
       id="linearGradient128">
      <stop
         style="stop-opacity:1;stop-color:#2f9c3c"
         offset="0"
         id="stop118" />
      <stop
         style="stop-opacity:1;stop-color:#2f9c3c"
         offset="0.318627"
         id="stop120" />
      <stop
         style="stop-opacity:1;stop-color:#2f9c3c"
         offset="0.478758"
         id="stop122" />
      <stop
         style="stop-opacity:1;stop-color:#6eb12d"
         offset="0.827134"
         id="stop124" />
      <stop
         style="stop-opacity:1;stop-color:#6eb12d"
         offset="1"
         id="stop126" />
    </linearGradient>
    <linearGradient
       x1="0"
       y1="0"
       x2="1"
       y2="0"
       gradientUnits="userSpaceOnUse"
       gradientTransform="matrix(213.9837,-23.117353,-23.117353,-213.9837,171.16557,338.7717)"
       spreadMethod="pad"
       id="linearGradient154">
      <stop
         style="stop-opacity:1;stop-color:#2f9c3c"
         offset="0"
         id="stop144" />
      <stop
         style="stop-opacity:1;stop-color:#2f9c3c"
         offset="0.318627"
         id="stop146" />
      <stop
         style="stop-opacity:1;stop-color:#2f9c3c"
         offset="0.478758"
         id="stop148" />
      <stop
         style="stop-opacity:1;stop-color:#6eb12d"
         offset="0.827134"
         id="stop150" />
      <stop
         style="stop-opacity:1;stop-color:#6eb12d"
         offset="1"
         id="stop152" />
    </linearGradient>
    <linearGradient
       x1="0"
       y1="0"
       x2="1"
       y2="0"
       gradientUnits="userSpaceOnUse"
       gradientTransform="matrix(140.10638,-106.43002,-106.43002,-140.10638,323.78845,426.04535)"
       spreadMethod="pad"
       id="linearGradient180">
      <stop
         style="stop-opacity:1;stop-color:#2f9c3c"
         offset="0"
         id="stop170" />
      <stop
         style="stop-opacity:1;stop-color:#2f9c3c"
         offset="0.318627"
         id="stop172" />
      <stop
         style="stop-opacity:1;stop-color:#2f9c3c"
         offset="0.478758"
         id="stop174" />
      <stop
         style="stop-opacity:1;stop-color:#6eb12d"
         offset="0.827134"
         id="stop176" />
      <stop
         style="stop-opacity:1;stop-color:#6eb12d"
         offset="1"
         id="stop178" />
    </linearGradient>
    <clipPath
       clipPathUnits="userSpaceOnUse"
       id="clipPath190">
      <path
         d="M 0,800 H 800 V 0 H 0 Z"
         id="path188" />
    </clipPath>
    <linearGradient
       x1="0"
       y1="0"
       x2="1"
       y2="0"
       gradientUnits="userSpaceOnUse"
       gradientTransform="matrix(140.10638,-106.43002,-106.43002,-140.10638,313.34894,412.30258)"
       spreadMethod="pad"
       id="linearGradient230">
      <stop
         style="stop-opacity:1;stop-color:#2f9c3c"
         offset="0"
         id="stop220" />
      <stop
         style="stop-opacity:1;stop-color:#2f9c3c"
         offset="0.318627"
         id="stop222" />
      <stop
         style="stop-opacity:1;stop-color:#2f9c3c"
         offset="0.478758"
         id="stop224" />
      <stop
         style="stop-opacity:1;stop-color:#6eb12d"
         offset="0.827134"
         id="stop226" />
      <stop
         style="stop-opacity:1;stop-color:#6eb12d"
         offset="1"
         id="stop228" />
    </linearGradient>
    <clipPath
       clipPathUnits="userSpaceOnUse"
       id="clipPath240">
      <path
         d="M 0,800 H 800 V 0 H 0 Z"
         id="path238" />
    </clipPath>
  </defs>
  <sodipodi:namedview
     id="namedview4"
     pagecolor="#ffffff"
     bordercolor="#000000"
     borderopacity="0.25"
     inkscape:showpageshadow="2"
     inkscape:pageopacity="0.0"
     inkscape:pagecheckerboard="0"
     inkscape:deskcolor="#d1d1d1" />
  <g
     id="g8"
     inkscape:groupmode="layer"
     inkscape:label="logo"
     transform="matrix(1.3333333,0,0,-1.3333333,0,1066.6667)">
    <g
       id="g10">
      <g
         id="g12"
         clip-path="url(#clipPath16)">
        <g
           id="g18"
           transform="translate(483.6803,564.3089)">
          <path
             d="M 0,0 -3.84,-7.18 C 70.13,-37 122.48,-109.54 122.48,-194.05 c 0,-111.02 -90.33,-201.34 -201.34,-201.34 -111.01,0 -201.34,90.32 -201.34,201.34 0,64.05 30.07,121.22 76.83,158.13 l 9.29,16.71 c -56.72,-37.51 -94.21,-101.87 -94.21,-174.84 0,-115.48 93.95,-209.44 209.43,-209.44 115.48,0 209.43,93.96 209.43,209.44 C 130.57,-106.43 76.51,-31.21 0,0"
             style="fill:#006934;fill-opacity:1;fill-rule:nonzero;stroke:none"
             id="path20" />
        </g>
        <g
           id="g22"
           transform="translate(556.3325,369.965)">
          <path
             d="m 0,0 c -0.027,-2.525 -0.095,-5.063 -0.257,-7.615 -1.512,-24.561 -8.776,-47.38 -20.415,-67.215 -8.844,-1.755 -20.024,-3.483 -32.73,-4.375 24.655,22.185 41.857,52.889 43.694,90.277 0.189,-0.162 0.391,-0.284 0.58,-0.419 0.095,-0.594 0.176,-1.066 0.054,-0.121 0.149,-1.08 0.473,-2.16 0.986,-3.106 -0.662,-3.591 1.35,-7.764 6.063,-7.764 0.742,0 1.404,0.149 2.025,0.338"
             style="fill:#006934;fill-opacity:1;fill-rule:nonzero;stroke:none"
             id="path24" />
        </g>
      </g>
    </g>
    <g
       id="g26">
      <g
         id="g28">
        <g
           id="g34">
          <g
             id="g36">
            <path
               d="m 443.764,439.254 c 0,-10.201 8.269,-18.469 18.47,-18.469 v 0 c 10.2,0 18.469,8.268 18.469,18.469 v 0 c 0,10.201 -8.269,18.47 -18.469,18.47 v 0 c -10.201,0 -18.47,-8.269 -18.47,-18.47"
               style="fill:url(#linearGradient50);stroke:none"
               id="path52" />
          </g>
        </g>
      </g>
    </g>
    <g
       id="g54">
      <g
         id="g56">
        <g
           id="g62">
          <g
             id="g64">
            <path
               d="m 281.344,340.112 c 12.247,-5.186 25.276,-10.113 39.211,-15.177 v 0 c 20.186,1.917 44.071,-0.31 69.658,-11.856 v 0 l 51.161,6.82 c -6.13,8.074 -14.421,12.975 -28.895,19.132 v 0 c -1.58,0.661 -3.241,1.148 -4.901,1.432 v 0 c -2.391,0.418 -4.834,0.661 -7.292,0.702 v 0 c -39.778,0.837 -79.245,3.496 -121.993,5.59 v 0 c 0.945,-2.229 1.971,-4.47 3.051,-6.643"
               style="fill:url(#linearGradient76);stroke:none"
               id="path78" />
          </g>
        </g>
      </g>
    </g>
    <g
       id="g80">
      <g
         id="g82">
        <g
           id="g88">
          <g
             id="g90">
            <path
               d="m 398.139,309.259 c 32.352,-16.068 66.485,-19.862 94.773,-18.998 v 0 c 6.805,5.522 13.435,11.814 19.849,18.863 v 0 c -20.008,2.954 -39.647,4.49 -59.079,4.489 v 0 c -18.665,0 -37.139,-1.417 -55.543,-4.354"
               style="fill:url(#linearGradient102);stroke:none"
               id="path104" />
          </g>
        </g>
      </g>
    </g>
    <g
       id="g106">
      <g
         id="g108">
        <g
           id="g114">
          <g
             id="g116">
            <path
               d="m 424.66,342.003 c 5.08,-6.47 13.636,-12.661 23.039,-20.356 v 0 c 20.499,-3.392 42.229,-6.027 68.02,-6.097 v 0 c 5.757,6.742 12.531,17.742 14.914,27.433 v 0 c -33.651,-1.155 -69.086,-1.4 -105.973,-0.98"
               style="fill:url(#linearGradient128);stroke:none"
               id="path130" />
          </g>
        </g>
      </g>
    </g>
    <g
       id="g132">
      <g
         id="g134">
        <g
           id="g140">
          <g
             id="g142">
            <path
               d="m 293.375,319.588 c 5.468,1.634 11.49,3.092 17.984,4.145 v 0 c -8.411,2.93 -17.107,5.819 -25.992,8.682 v 0 c 2.512,-4.429 5.172,-8.709 8.008,-12.827"
               style="fill:url(#linearGradient154);stroke:none"
               id="path156" />
          </g>
        </g>
      </g>
    </g>
    <g
       id="g158">
      <g
         id="g160">
        <g
           id="g166">
          <g
             id="g168">
            <path
               d="m 410.696,402.424 c -6.629,-4.441 -12.395,-9.613 -16.608,-16.189 v 0 c -1.174,-1.85 -3.496,-1.822 -4.685,0.067 v 0 c -1.755,2.796 -4.415,5.077 -7.79,6.968 v 0 c -1.338,0.729 -2.904,0.905 -4.294,0.311 v 0 c -1.31,-0.595 -2.337,-1.608 -3.12,-2.944 v 0 c -1.026,-1.715 -3.118,-2.093 -4.442,-0.689 v 0 c -1.242,1.256 -2.727,2.229 -4.32,3.038 v 0 c -1.824,0.905 -3.903,0.635 -5.563,-0.553 v 0 c -3.997,-2.809 -7.319,-6.833 -10.194,-11.72 v 0 c -0.972,-1.647 -3.052,-1.539 -3.903,0.175 v 0 c -1.849,3.633 -4.415,5.522 -7.561,6.185 v 0 c -3.834,-0.555 -7.102,-2.337 -9.979,-4.794 v 0 c -3.051,-2.66 -7.156,-3.038 -10.612,-1.215 v 0 c -2.08,1.081 -4.348,1.499 -6.914,1.081 v 0 c -3.267,-0.906 -6.291,-4.308 -8.897,-8.494 v 0 c -1.756,-2.836 -4.685,-4.483 -7.71,-4.24 v 0 c -9.303,0.837 -15.028,-2.065 -17.62,-10.977 v 0 l 19.321,-1.931 122.52,-12.22 3.375,-0.337 9.263,0.553 103.388,6.199 c -0.311,12.975 -6.738,21.9 -19.565,24.452 v 0 c -2.349,0.459 -4.105,2.593 -4.686,5.239 v 0 c -0.904,4.266 -2.808,7.98 -5.347,11.368 v 0 c -1.876,2.458 -4.834,3.538 -7.493,2.377 v 0 c -2.998,-1.282 -5.563,-3.106 -7.751,-5.522 v 0 c -1.417,-1.566 -3.658,-1.324 -4.712,0.594 v 0 c -2.363,4.24 -5.59,8.156 -9.343,11.895 v 0 c -3.781,3.741 -9.344,3.781 -13.3,0.284 v 0 c -5.631,-4.969 -10.249,-10.424 -13.638,-16.554 v 0 c -1.175,-2.093 -3.929,-1.985 -4.955,0.216 v 0 c -0.919,1.917 -1.931,3.727 -3.052,5.455 v 0 c -2.254,3.524 -4.887,6.683 -7.803,9.587 v 0 c -3.532,3.516 -7.96,5.309 -12.418,5.309 v 0 c -3.298,0 -6.613,-0.982 -9.592,-2.974"
               style="fill:url(#linearGradient180);stroke:none"
               id="path182" />
          </g>
        </g>
      </g>
    </g>
    <g
       id="g184">
      <g
         id="g186"
         clip-path="url(#clipPath190)">
        <g
           id="g192"
           transform="translate(543.8204,360.1591)">
          <path
             d="m 0,0 c 0,0 15.885,74.66 -52.421,131.528 0,0 74.025,-33.994 64.017,-137.723 z"
             style="fill:#006934;fill-opacity:1;fill-rule:nonzero;stroke:none"
             id="path194" />
        </g>
        <g
           id="g196"
           transform="translate(279.2402,301.3401)">
          <path
             d="M 0,0 C 80.919,35.519 175.031,-82.566 256.371,-7.401 166.173,-55.914 81.237,60.203 0,0"
             style="fill:#006934;fill-opacity:1;fill-rule:nonzero;stroke:none"
             id="path198" />
        </g>
        <g
           id="g200"
           transform="translate(287.8858,295.598)">
          <path
             d="M 0,0 C 67.94,12.336 139.441,-74.856 203.826,-33.692 130.584,-48.204 67.741,25.211 0,0"
             style="fill:#006934;fill-opacity:1;fill-rule:nonzero;stroke:none"
             id="path202" />
        </g>
        <g
           id="g204"
           transform="translate(496.1015,255.0416)">
          <path
             d="m 0,0 c -14.011,-8.951 -28.197,-12.459 -42.43,-12.459 -9.208,-0.003 -18.437,1.52 -27.656,3.928 l -4.938,1.386 c -48.597,13.663 -93.145,47.629 -145.62,40.463 17.557,-24.449 42.171,-43.768 70.091,-55.015 59.51,-23.972 129.128,-9.178 173.901,36.632 z"
             style="fill:#006934;fill-opacity:1;fill-rule:nonzero;stroke:none"
             id="path206" />
        </g>
      </g>
    </g>
    <g
       id="g208">
      <g
         id="g210">
        <g
           id="g216">
          <g
             id="g218">
            <path
               d="m 308.227,420.558 c -12.943,-13.601 -23.47,-34.175 -31.857,-60.936 v 0 c 4.976,0.132 9.951,-0.501 15.036,-1.154 v 0 c 1.705,-0.219 3.312,-0.862 4.491,-1.925 v 0 c 71.684,31.555 116.408,31.982 122.428,-12.26 v 0 l 3.375,-0.337 9.263,0.553 c 5.401,11.897 9.101,22.86 10.667,32.663 v 0 c 0.742,4.698 0.283,9.221 -1.121,13.34 v 0 c -4.185,12.287 -16.81,20.807 -30.852,18.62 v 0 c -9.695,-1.513 -21.334,-4.159 -35.039,-8.021 v 0 c -7.156,-2.011 -14.825,0.945 -18.606,7.333 v 0 c -0.972,1.633 -1.903,3.401 -2.822,5.292 v 0 c -4.874,10.085 -14.786,15.471 -24.84,15.472 v 0 c -7.244,0.001 -14.559,-2.793 -20.123,-8.64"
               style="fill:url(#linearGradient230);stroke:none"
               id="path232" />
          </g>
        </g>
      </g>
    </g>
    <g
       id="g234">
      <g
         id="g236"
         clip-path="url(#clipPath240)">
        <g
           id="g242"
           transform="translate(326.2002,373.5137)">
          <path
             d="m 0,0 h -8.433 v -4.808 h 7.749 v -3.579 h -7.749 v -7.607 h -5.383 V 3.592 L 0,3.592 Z"
             style="fill:#ffffff;fill-opacity:1;fill-rule:nonzero;stroke:none"
             id="path244" />
        </g>
        <g
           id="g246"
           transform="translate(340.9844,365.2637)">
          <path
             d="m 0,0 -2.566,6.584 c -0.189,0.491 -0.323,1.078 -0.4,1.762 H -3.1 C -3.155,7.771 -3.294,7.203 -3.517,6.639 L -6.116,0 Z M 8.8,-7.744 H 2.934 l -1.701,4.357 h -8.5 l -1.682,-4.357 h -5.834 l 8.7,19.586 h 6.384 z"
             style="fill:#ffffff;fill-opacity:1;fill-rule:nonzero;stroke:none"
             id="path248" />
        </g>
        <g
           id="g250"
           transform="translate(356.7861,373.8008)">
          <path
             d="m 0,0 v -5.45 h 2.333 c 1.155,0 2.083,0.273 2.783,0.819 0.711,0.556 1.067,1.243 1.067,2.063 C 6.183,-0.856 4.933,0 2.433,0 Z M 14.666,-16.281 H 8.482 l -3.715,5.04 c -0.279,0.383 -0.545,0.723 -0.801,1.024 -0.255,0.301 -0.514,0.558 -0.775,0.772 -0.261,0.214 -0.533,0.378 -0.816,0.492 -0.284,0.113 -0.592,0.17 -0.926,0.17 H 0 v -7.498 H -5.384 V 3.305 h 8.533 c 5.8,0 8.701,-1.776 8.701,-5.326 0,-0.684 -0.128,-1.314 -0.384,-1.892 C 11.21,-4.492 10.85,-5.013 10.383,-5.478 9.916,-5.941 9.353,-6.343 8.691,-6.68 8.03,-7.017 7.294,-7.28 6.482,-7.472 v -0.054 c 0.356,-0.091 0.701,-0.24 1.035,-0.444 0.333,-0.205 0.655,-0.444 0.965,-0.718 0.312,-0.272 0.609,-0.566 0.892,-0.88 0.284,-0.314 0.542,-0.621 0.775,-0.922 z"
             style="fill:#ffffff;fill-opacity:1;fill-rule:nonzero;stroke:none"
             id="path252" />
        </g>
        <g
           id="g254"
           transform="translate(399.5537,357.5195)">
          <path
             d="m 0,0 h -5.316 v 11.719 c 0,1.265 0.066,2.664 0.199,4.193 H -5.25 C -5.528,14.71 -5.778,13.845 -6,13.317 L -11.601,0 H -16 l -5.7,13.181 c -0.155,0.354 -0.405,1.265 -0.75,2.731 h -0.15 c 0.144,-1.931 0.216,-3.624 0.216,-5.081 V 0 h -4.849 v 19.586 h 7.883 l 4.883,-11.609 c 0.389,-0.929 0.672,-1.863 0.85,-2.8 h 0.1 c 0.3,1.083 0.617,2.025 0.951,2.827 l 4.882,11.582 H 0 Z"
             style="fill:#ffffff;fill-opacity:1;fill-rule:nonzero;stroke:none"
             id="path256" />
        </g>
        <g
           id="g258"
           transform="translate(417.4375,373.5137)">
          <path
             d="m 0,0 h -8.433 v -4.808 h 7.749 v -3.579 h -7.749 v -7.607 h -5.383 V 3.592 L 0,3.592 Z"
             style="fill:#ffffff;fill-opacity:1;fill-rule:nonzero;stroke:none"
             id="path260" />
        </g>
        <g
           id="g262"
           transform="translate(425.3896,373.8008)">
          <path
             d="m 0,0 v -5.45 h 2.333 c 1.155,0 2.083,0.273 2.783,0.819 0.711,0.556 1.067,1.243 1.067,2.063 C 6.183,-0.856 4.933,0 2.433,0 Z M 14.666,-16.281 H 8.482 l -3.715,5.04 c -0.279,0.383 -0.545,0.723 -0.801,1.024 -0.255,0.301 -0.514,0.558 -0.775,0.772 -0.261,0.214 -0.533,0.378 -0.816,0.492 -0.284,0.113 -0.592,0.17 -0.926,0.17 H 0 v -7.498 H -5.384 V 3.305 h 8.533 c 5.8,0 8.701,-1.776 8.701,-5.326 0,-0.684 -0.128,-1.314 -0.384,-1.892 C 11.21,-4.492 10.85,-5.013 10.383,-5.478 9.916,-5.941 9.353,-6.343 8.691,-6.68 8.03,-7.017 7.294,-7.28 6.482,-7.472 v -0.054 c 0.356,-0.091 0.701,-0.24 1.035,-0.444 0.333,-0.205 0.655,-0.444 0.965,-0.718 0.312,-0.272 0.609,-0.566 0.892,-0.88 0.284,-0.314 0.542,-0.621 0.775,-0.922 z"
             style="fill:#ffffff;fill-opacity:1;fill-rule:nonzero;stroke:none"
             id="path264" />
        </g>
        <g
           id="g266"
           transform="translate(455.2568,357.5195)">
          <path
             d="M 0,0 H -14.333 V 19.586 H -0.55 v -3.592 h -8.4 v -4.357 h 7.816 V 8.059 H -8.95 V 3.578 H 0 Z"
             style="fill:#ffffff;fill-opacity:1;fill-rule:nonzero;stroke:none"
             id="path268" />
        </g>
        <g
           id="g270"
           transform="translate(456.625,358.2705)">
          <path
             d="M 0,0 V 4.371 C 0.967,3.706 2.017,3.208 3.149,2.875 4.283,2.543 5.428,2.377 6.583,2.377 c 0.678,0 1.27,0.05 1.775,0.15 0.505,0.1 0.927,0.239 1.267,0.416 0.339,0.178 0.591,0.387 0.758,0.629 0.167,0.241 0.25,0.503 0.25,0.785 0,0.382 -0.133,0.724 -0.4,1.025 C 9.966,5.683 9.603,5.96 9.142,6.215 8.68,6.47 8.133,6.716 7.5,6.952 6.866,7.189 6.183,7.431 5.449,7.677 3.583,8.313 2.191,9.092 1.274,10.012 c -0.916,0.92 -1.375,2.03 -1.375,3.333 0,1.019 0.25,1.895 0.75,2.629 0.5,0.733 1.181,1.336 2.042,1.809 0.862,0.474 1.859,0.822 2.992,1.045 1.133,0.224 2.334,0.335 3.6,0.335 1.244,0 2.347,-0.061 3.308,-0.184 0.961,-0.124 1.847,-0.312 2.659,-0.567 v -4.084 c -0.4,0.228 -0.837,0.428 -1.309,0.601 -0.472,0.173 -0.958,0.316 -1.458,0.43 -0.5,0.114 -0.998,0.199 -1.492,0.253 -0.494,0.054 -0.964,0.081 -1.408,0.081 -0.611,0 -1.167,-0.047 -1.667,-0.142 C 7.416,15.455 6.994,15.32 6.649,15.147 6.305,14.975 6.038,14.768 5.85,14.526 5.66,14.284 5.566,14.014 5.566,13.713 c 0,-0.327 0.106,-0.621 0.317,-0.881 0.211,-0.259 0.511,-0.505 0.9,-0.737 0.389,-0.233 0.861,-0.46 1.416,-0.683 0.556,-0.224 1.184,-0.453 1.884,-0.69 0.955,-0.327 1.813,-0.676 2.575,-1.045 C 13.419,9.309 14.071,8.892 14.616,8.428 15.16,7.963 15.577,7.433 15.866,6.836 16.155,6.24 16.3,5.546 16.3,4.753 16.3,3.661 16.047,2.743 15.541,2.001 15.035,1.259 14.35,0.658 13.483,0.198 c -0.867,-0.46 -1.875,-0.79 -3.025,-0.99 -1.15,-0.2 -2.364,-0.301 -3.642,-0.301 -1.311,0 -2.558,0.092 -3.741,0.274 C 1.892,-0.638 0.866,-0.364 0,0"
             style="fill:#ffffff;fill-opacity:1;fill-rule:nonzero;stroke:none"
             id="path272" />
        </g>
        <g
           id="g274"
           transform="translate(496.1758,357.5195)">
          <path
             d="m 0,0 h -5.4 v 7.977 h -9.9 V 0 h -5.384 v 19.586 h 5.384 v -7.813 h 9.9 v 7.813 H 0 Z"
             style="fill:#ffffff;fill-opacity:1;fill-rule:nonzero;stroke:none"
             id="path276" />
        </g>
        <g
           id="g278"
           transform="translate(477.5051,566.94)">
          <path
             d="m 0,0 c -23.237,-52.632 -45.934,-110.682 -146.85,-115.704 -36.335,-1.513 -52.146,-14.597 -56.13,-33.729 -5.752,-17.148 -7.129,-34.553 -5.036,-51.242 0.378,-4.091 1.391,-7.898 2.093,-11.693 3.281,-12.705 8.155,-24.871 14.637,-36.213 0.148,-0.311 0.31,-0.621 0.486,-0.945 -8.561,-3.011 -15.38,-6.319 -20.051,-8.858 -3.403,7.413 -6.212,15.123 -8.358,23.089 -5.725,23.791 -5.887,51.606 1.134,84.295 7.818,25.452 21.698,48.028 39.967,65.649 l 0.31,-0.014 c 2.012,2.066 3.997,3.808 5.968,5.563 2.647,2.336 5.28,4.361 7.899,6.387 l 0.324,0.297 c 18.687,14.15 42.992,28.287 73.507,41.708 -52.133,-4.28 -92.383,-28.679 -123.587,-68.618 C -197.282,-36.675 -148.228,53.807 0,0"
             style="fill:#006934;fill-opacity:1;fill-rule:nonzero;stroke:none"
             id="path280" />
        </g>
        <g
           id="g282"
           transform="translate(503.0732,527.2822)">
          <path
             d="m 0,0 -9.014,5.06 -2.944,-5.247 8.283,-4.648 -2.191,-3.905 -8.283,4.649 -4.659,-8.301 -5.754,3.229 11.995,21.371 L 2.2,3.92 Z"
             style="fill:#006934;fill-opacity:1;fill-rule:nonzero;stroke:none"
             id="path284" />
        </g>
        <g
           id="g286"
           transform="translate(519.0312,502.3857)">
          <path
             d="m 0,0 2.848,8.346 c 0.215,0.621 0.559,1.29 1.033,2.008 L 3.755,10.458 C 3.244,9.95 2.657,9.511 1.996,9.142 l -7.76,-4.349 z m 2.098,-14.347 -5.53,4.598 1.883,5.524 -8.01,6.662 -5.071,-2.874 -5.497,4.573 23.868,12.024 6.015,-5.002 z"
             style="fill:#006934;fill-opacity:1;fill-rule:nonzero;stroke:none"
             id="path288" />
        </g>
        <g
           id="g290"
           transform="translate(546.7158,489.4668)">
          <path
             d="m 0,0 -5.303,-4.288 1.798,-2.224 c 0.891,-1.101 1.871,-1.77 2.943,-2.008 1.088,-0.241 2.032,-0.039 2.829,0.607 1.665,1.347 1.535,3.212 -0.392,5.594 z m -4.538,-26.787 -4.764,5.893 2.038,7.507 c 0.159,0.566 0.285,1.089 0.38,1.569 0.096,0.479 0.147,0.928 0.155,1.345 0.005,0.417 -0.044,0.806 -0.152,1.165 -0.108,0.36 -0.29,0.699 -0.547,1.016 l -1.116,1.382 -7.297,-5.899 -4.148,5.13 19.056,15.409 6.577,-8.132 c 4.469,-5.528 4.976,-9.689 1.521,-12.482 -0.664,-0.538 -1.376,-0.912 -2.136,-1.123 -0.76,-0.212 -1.546,-0.277 -2.356,-0.198 -0.812,0.079 -1.637,0.302 -2.473,0.666 -0.838,0.365 -1.662,0.859 -2.472,1.482 l -0.054,-0.044 c 0.185,-0.41 0.307,-0.854 0.364,-1.334 0.058,-0.478 0.074,-0.973 0.047,-1.485 -0.025,-0.511 -0.082,-1.025 -0.17,-1.542 -0.086,-0.517 -0.186,-1.006 -0.299,-1.464 z"
             style="fill:#006934;fill-opacity:1;fill-rule:nonzero;stroke:none"
             id="path292" />
        </g>
        <g
           id="g294"
           transform="translate(560.9199,426.5762)">
          <path
             d="m 0,0 -2.842,5.864 13.195,6.396 c 1.424,0.69 3.034,1.38 4.828,2.067 l -0.072,0.148 C 13.607,14.125 12.5,13.929 11.786,13.886 L -6.201,12.794 -8.554,17.646 3.239,31.127 c 0.317,0.365 1.208,1.138 2.675,2.317 L 5.834,33.61 C 3.737,32.397 1.869,31.394 0.229,30.599 L -11.967,24.687 -14.56,30.036 7.493,40.726 11.708,32.03 1.247,20.309 C 0.409,19.373 -0.49,18.551 -1.451,17.843 l 0.054,-0.111 c 1.379,0.261 2.61,0.426 3.691,0.496 l 15.651,0.936 4.108,-8.475 z"
             style="fill:#006934;fill-opacity:1;fill-rule:nonzero;stroke:none"
             id="path296" />
        </g>
        <g
           id="g298"
           transform="translate(587.2461,403.8477)">
          <path
             d="m 0,0 -2.429,10.046 -5.846,-1.413 2.231,-9.232 -4.352,-1.052 -2.231,9.232 -9.253,-2.236 -1.551,6.413 23.821,5.758 3.979,-16.46 z"
             style="fill:#006934;fill-opacity:1;fill-rule:nonzero;stroke:none"
             id="path300" />
        </g>
        <g
           id="g302"
           transform="translate(590.0293,384.2793)">
          <path
             d="m 0,0 -6.806,-0.413 0.173,-2.855 c 0.086,-1.413 0.495,-2.527 1.23,-3.341 0.746,-0.828 1.632,-1.211 2.655,-1.15 2.138,0.13 3.114,1.724 2.93,4.782 z m -19.247,-19.175 -0.458,7.565 6.019,4.927 c 0.457,0.371 0.864,0.722 1.221,1.058 0.356,0.335 0.658,0.671 0.906,1.006 0.248,0.336 0.432,0.681 0.553,1.037 0.121,0.354 0.17,0.736 0.146,1.144 l -0.109,1.774 -9.365,-0.567 -0.398,6.585 L 3.73,6.837 4.362,-3.604 c 0.43,-7.094 -1.573,-10.778 -6.008,-11.047 -0.853,-0.051 -1.651,0.057 -2.391,0.327 -0.741,0.269 -1.42,0.671 -2.033,1.208 -0.616,0.535 -1.157,1.194 -1.627,1.977 -0.471,0.784 -0.854,1.664 -1.154,2.641 l -0.067,-0.003 c -0.088,-0.442 -0.247,-0.874 -0.478,-1.298 -0.232,-0.423 -0.506,-0.836 -0.825,-1.236 -0.317,-0.401 -0.662,-0.787 -1.033,-1.157 -0.371,-0.371 -0.736,-0.71 -1.095,-1.019 z"
             style="fill:#006934;fill-opacity:1;fill-rule:nonzero;stroke:none"
             id="path304" />
        </g>
        <g
           id="g306"
           transform="translate(567.9844,340.0635)">
          <path
             d="M 0,0 2.018,17.451 26.361,14.638 24.422,-2.144 19.957,-1.629 21.139,8.6 15.724,9.226 14.623,-0.292 10.176,0.222 11.275,9.739 5.707,10.383 4.447,-0.514 Z"
             style="fill:#006934;fill-opacity:1;fill-rule:nonzero;stroke:none"
             id="path308" />
        </g>
        <g
           id="g310"
           transform="translate(567.2637,331.7148)">
          <path
             d="M 0,0 5.253,-1.52 C 4.125,-2.427 3.168,-3.49 2.382,-4.709 1.597,-5.928 1.008,-7.217 0.613,-8.577 0.383,-9.375 0.241,-10.089 0.189,-10.72 c -0.051,-0.63 -0.028,-1.176 0.071,-1.636 0.097,-0.461 0.263,-0.832 0.496,-1.112 0.233,-0.279 0.519,-0.469 0.859,-0.567 0.46,-0.133 0.915,-0.095 1.367,0.115 0.453,0.209 0.911,0.541 1.373,0.995 0.464,0.455 0.946,1.014 1.446,1.677 0.501,0.663 1.023,1.385 1.568,2.162 1.402,1.976 2.813,3.345 4.23,4.105 1.417,0.759 2.909,0.912 4.473,0.459 1.227,-0.355 2.195,-0.954 2.905,-1.797 0.71,-0.843 1.205,-1.854 1.48,-3.034 0.275,-1.177 0.355,-2.473 0.237,-3.885 -0.118,-1.412 -0.392,-2.864 -0.823,-4.355 -0.424,-1.465 -0.874,-2.742 -1.349,-3.831 -0.475,-1.09 -1.003,-2.066 -1.586,-2.933 l -4.909,1.42 c 0.41,0.392 0.799,0.835 1.168,1.332 0.368,0.496 0.706,1.018 1.014,1.566 0.307,0.549 0.577,1.107 0.812,1.67 0.233,0.562 0.426,1.105 0.578,1.63 0.208,0.719 0.34,1.39 0.395,2.011 0.055,0.623 0.037,1.166 -0.053,1.632 -0.091,0.466 -0.249,0.851 -0.474,1.158 -0.227,0.307 -0.52,0.511 -0.881,0.616 -0.395,0.113 -0.783,0.092 -1.166,-0.067 -0.385,-0.157 -0.781,-0.425 -1.193,-0.802 -0.413,-0.378 -0.846,-0.855 -1.304,-1.431 -0.457,-0.577 -0.947,-1.237 -1.47,-1.978 -0.72,-1.011 -1.431,-1.901 -2.133,-2.669 -0.703,-0.767 -1.425,-1.392 -2.17,-1.872 -0.743,-0.478 -1.523,-0.785 -2.337,-0.919 -0.816,-0.131 -1.7,-0.06 -2.651,0.214 -1.314,0.381 -2.331,0.997 -3.051,1.851 -0.719,0.853 -1.209,1.871 -1.465,3.051 -0.258,1.179 -0.312,2.482 -0.161,3.906 0.152,1.424 0.445,2.888 0.88,4.392 0.446,1.542 0.981,2.98 1.602,4.31 C -1.411,-2.006 -0.734,-0.895 0,0"
             style="fill:#006934;fill-opacity:1;fill-rule:nonzero;stroke:none"
             id="path312" />
        </g>
        <g
           id="g314"
           transform="translate(545.8437,281.3193)">
          <path
             d="m 0,0 3.041,5.878 8.864,-4.586 5.577,10.776 -8.864,4.587 3.032,5.861 21.766,-11.263 -3.033,-5.86 -8.682,4.492 -5.576,-10.778 8.682,-4.491 -3.041,-5.879 z"
             style="fill:#006934;fill-opacity:1;fill-rule:nonzero;stroke:none"
             id="path316" />
        </g>
        <g
           id="g318"
           transform="translate(540.4473,235.5283)">
          <path
             d="m 0,0 -3.145,2.892 1.659,1.804 -11.748,10.805 -1.66,-1.804 -3.144,2.892 7.785,8.465 3.145,-2.892 -1.66,-1.805 L 2.98,9.553 4.641,11.357 7.785,8.464 Z"
             style="fill:#006934;fill-opacity:1;fill-rule:nonzero;stroke:none"
             id="path320" />
        </g>
        <g
           id="g322"
           transform="translate(495.3359,229.3604)">
          <path
             d="m 0,0 5.26,4.084 18.98,-4.758 c 1.111,-0.276 1.914,-0.511 2.408,-0.705 l 0.065,0.051 C 26.096,-0.711 25.242,0.3 24.152,1.703 l -8.259,10.637 4.921,3.822 15.03,-19.357 -5.615,-4.361 -18.331,4.657 c -0.832,0.205 -1.627,0.431 -2.387,0.677 l -0.066,-0.05 c 0.436,-0.383 1.167,-1.237 2.195,-2.559 l 8.311,-10.704 -4.922,-3.821 z"
             style="fill:#006934;fill-opacity:1;fill-rule:nonzero;stroke:none"
             id="path324" />
        </g>
        <g
           id="g326"
           transform="translate(475.8789,196.585)">
          <path
             d="m 0,0 7.486,3.709 -8.882,17.933 5.931,2.936 8.883,-17.932 7.449,3.69 L 22.862,6.308 1.994,-4.027 Z"
             style="fill:#006934;fill-opacity:1;fill-rule:nonzero;stroke:none"
             id="path328" />
        </g>
        <g
           id="g330"
           transform="translate(441.8369,206.5801)">
          <path
             d="m 0,0 16.837,5.018 6.998,-23.487 -16.19,-4.824 -1.284,4.308 9.867,2.94 -1.557,5.224 -9.182,-2.736 -1.278,4.291 9.182,2.736 -1.601,5.372 L 1.278,-4.29 Z"
             style="fill:#006934;fill-opacity:1;fill-rule:nonzero;stroke:none"
             id="path332" />
        </g>
        <g
           id="g334"
           transform="translate(428.207,183.667)">
          <path
             d="M 0,0 -0.755,6.775 -3.597,6.46 C -5.005,6.303 -6.098,5.837 -6.874,5.062 -7.663,4.276 -8.001,3.373 -7.888,2.354 -7.65,0.226 -6.01,-0.67 -2.965,-0.331 Z m -20.12,18.256 7.532,0.839 5.225,-5.763 c 0.391,-0.438 0.763,-0.827 1.117,-1.166 0.352,-0.339 0.703,-0.624 1.051,-0.854 0.347,-0.23 0.701,-0.398 1.062,-0.501 0.362,-0.103 0.744,-0.133 1.151,-0.087 l 1.766,0.197 -1.038,9.324 6.558,0.732 L 7.016,-3.381 -3.38,-4.538 c -7.065,-0.786 -10.844,1.028 -11.335,5.444 -0.096,0.849 -0.026,1.651 0.205,2.405 0.231,0.752 0.599,1.451 1.104,2.091 0.504,0.641 1.135,1.215 1.894,1.724 0.758,0.51 1.619,0.937 2.58,1.285 l -0.007,0.068 c -0.447,0.066 -0.886,0.202 -1.321,0.412 -0.434,0.209 -0.859,0.463 -1.277,0.76 -0.416,0.297 -0.818,0.622 -1.207,0.975 -0.39,0.352 -0.746,0.699 -1.072,1.042 z"
             style="fill:#006934;fill-opacity:1;fill-rule:nonzero;stroke:none"
             id="path336" />
        </g>
        <g
           id="g338"
           transform="translate(374.4111,204.5244)">
          <path
             d="m 0,0 6.629,-0.64 10.539,-16.484 c 0.619,-0.964 1.042,-1.687 1.27,-2.166 l 0.081,-0.007 c -0.025,0.872 0.047,2.193 0.217,3.961 l 1.292,13.405 6.202,-0.598 -2.351,-24.393 -7.076,0.682 -10.138,15.965 C 6.2,-9.555 5.776,-8.844 5.393,-8.143 l -0.082,0.008 c 0.054,-0.578 0,-1.7 -0.161,-3.368 l -1.299,-13.488 -6.202,0.596 z"
             style="fill:#006934;fill-opacity:1;fill-rule:nonzero;stroke:none"
             id="path340" />
        </g>
        <g
           id="g342"
           transform="translate(346.1357,202.3486)">
          <path
             d="m 0,0 0.474,-8.805 c 0.032,-0.656 -0.037,-1.406 -0.208,-2.249 l 0.156,-0.05 c 0.285,0.663 0.664,1.289 1.14,1.876 l 5.575,6.933 z m -7.304,12.525 6.846,-2.2 0.315,-5.828 9.919,-3.187 3.632,4.558 6.807,-2.187 -17.651,-20.069 -7.448,2.394 z"
             style="fill:#006934;fill-opacity:1;fill-rule:nonzero;stroke:none"
             id="path344" />
        </g>
        <g
           id="g346"
           transform="translate(303.6289,211.0635)">
          <path
             d="m 0,0 7.322,-4.023 9.638,17.538 5.8,-3.189 -9.637,-17.538 7.286,-4.003 -2.165,-3.939 -20.409,11.215 z"
             style="fill:#006934;fill-opacity:1;fill-rule:nonzero;stroke:none"
             id="path348" />
        </g>
        <g
           id="g350"
           transform="translate(284.1104,219.8398)">
          <path
             d="m 0,0 2.572,3.411 1.957,-1.474 9.608,12.746 -1.958,1.475 2.572,3.411 9.185,-6.923 -2.573,-3.411 -1.957,1.476 -9.608,-12.747 1.957,-1.475 -2.571,-3.412 z"
             style="fill:#006934;fill-opacity:1;fill-rule:nonzero;stroke:none"
             id="path352" />
        </g>
        <g
           id="g354"
           transform="translate(268.3618,240.3125)">
          <path
             d="m 0,0 c 1.597,-1.678 3.391,-2.507 5.382,-2.49 1.991,0.017 3.853,0.85 5.585,2.501 1.757,1.675 2.677,3.492 2.76,5.452 C 13.81,7.424 13.09,9.202 11.567,10.8 9.999,12.446 8.257,13.279 6.342,13.298 4.428,13.316 2.588,12.485 0.823,10.803 -1.016,9.05 -2.001,7.218 -2.131,5.307 -2.261,3.395 -1.551,1.626 0,0 m 15.104,14.001 c 2.894,-3.037 4.425,-6.3 4.594,-9.788 0.17,-3.488 -1.073,-6.498 -3.73,-9.029 -2.803,-2.672 -5.997,-3.864 -9.58,-3.572 -3.582,0.291 -6.901,2.038 -9.954,5.243 -2.885,3.027 -4.389,6.264 -4.512,9.712 -0.123,3.448 1.173,6.465 3.886,9.05 2.788,2.657 5.958,3.831 9.512,3.522 3.554,-0.31 6.815,-2.024 9.784,-5.138"
             style="fill:#006934;fill-opacity:1;fill-rule:nonzero;stroke:none"
             id="path356" />
        </g>
        <g
           id="g358"
           transform="translate(253.9346,294.7383)">
          <path
             d="M 0,0 3.428,-5.71 -3.56,-23.985 c -0.406,-1.072 -0.735,-1.84 -0.985,-2.308 l 0.041,-0.071 c 0.687,0.539 1.792,1.266 3.316,2.181 l 11.545,6.933 3.207,-5.343 -21.01,-12.613 -3.66,6.094 6.809,17.644 c 0.302,0.802 0.621,1.566 0.957,2.291 l -0.042,0.07 c -0.433,-0.387 -1.367,-1.011 -2.803,-1.873 l -11.619,-6.976 -3.207,5.342 z"
             style="fill:#006934;fill-opacity:1;fill-rule:nonzero;stroke:none"
             id="path360" />
        </g>
        <g
           id="g362"
           transform="translate(235.3818,316.21)">
          <path
             d="M 0,0 -6.8,-5.613 C -7.31,-6.03 -7.953,-6.419 -8.732,-6.782 l 0.052,-0.155 c 0.701,0.164 1.43,0.231 2.187,0.199 L 2.396,-7.105 Z M 5.736,13.316 8.034,6.501 3.533,2.786 6.862,-7.087 12.687,-7.3 l 2.284,-6.775 -26.629,2.275 -2.5,7.414 z"
             style="fill:#006934;fill-opacity:1;fill-rule:nonzero;stroke:none"
             id="path364" />
        </g>
        <g
           id="g366"
           transform="translate(237.2983,355.1719)">
          <path
             d="m 0,0 2.483,-17.268 -24.256,-3.489 -0.94,6.531 19.825,2.852 -1.544,10.736 z"
             style="fill:#006934;fill-opacity:1;fill-rule:nonzero;stroke:none"
             id="path368" />
        </g>
        <g
           id="g370"
           transform="translate(239.2847,398.1934)">
          <path
             d="m 0,0 -1.982,-17.333 -24.348,2.785 0.749,6.555 19.9,-2.277 1.232,10.779 z"
             style="fill:#006934;fill-opacity:1;fill-rule:nonzero;stroke:none"
             id="path372" />
        </g>
        <g
           id="g374"
           transform="translate(244.1523,418.582)">
          <path
             d="m 0,0 c 0.166,-1.029 0.005,-2.473 -0.482,-4.329 -1.156,-4.4 -3.645,-6.099 -7.469,-5.095 l -7.753,2.036 -0.86,-3.28 -3.852,1.011 0.861,3.28 -3.653,0.959 0.146,6.615 5.141,-1.35 1.193,4.545 3.852,-1.011 -1.193,-4.546 6.843,-1.796 c 1.763,-0.462 2.865,0.143 3.304,1.816 0.172,0.658 0.191,1.378 0.054,2.161 z"
             style="fill:#006934;fill-opacity:1;fill-rule:nonzero;stroke:none"
             id="path376" />
        </g>
        <g
           id="g378"
           transform="translate(244.8521,443.0879)">
          <path
             d="m 0,0 -1.205,0.53 c -1.043,0.458 -2.068,0.477 -3.074,0.057 -1.006,-0.421 -1.764,-1.21 -2.274,-2.37 -0.574,-1.309 -0.594,-2.521 -0.057,-3.635 0.537,-1.113 1.557,-2 3.059,-2.66 1.408,-0.619 2.649,-0.741 3.722,-0.364 1.075,0.375 1.888,1.193 2.441,2.452 0.527,1.197 0.554,2.349 0.082,3.456 C 2.222,-1.427 1.325,-0.581 0,0 M 10.339,2.373 7.742,-3.536 5.536,-2.567 5.502,-2.642 C 6.643,-4.749 6.64,-7.105 5.494,-9.711 4.442,-12.105 2.89,-13.72 0.834,-14.559 c -2.054,-0.837 -4.348,-0.699 -6.883,0.416 -2.649,1.164 -4.418,2.901 -5.307,5.211 -0.889,2.309 -0.761,4.767 0.385,7.373 1.085,2.468 2.581,3.864 4.49,4.185 l 0.033,0.075 -9.528,4.188 2.597,5.909 z"
             style="fill:#006934;fill-opacity:1;fill-rule:nonzero;stroke:none"
             id="path380" />
        </g>
      </g>
    </g>
  </g>
</svg>
