<?xml version="1.0" standalone="no"?>
<!DOCTYPE svg PUBLIC "-//W3C//DTD SVG 20010904//EN"
 "http://www.w3.org/TR/2001/REC-SVG-20010904/DTD/svg10.dtd">
<svg version="1.0" xmlns="http://www.w3.org/2000/svg"
 width="454.000000pt" height="454.000000pt" viewBox="0 0 454.000000 454.000000"
 preserveAspectRatio="xMidYMid meet">
<metadata>
Created by potrace 1.16, written by Peter Selinger 2001-2019
</metadata>
<g transform="translate(0.000000,454.000000) scale(0.100000,-0.100000)"
fill="#000000" stroke="none">
<path d="M2307 4009 c-104 -162 -261 -452 -342 -634 -98 -221 -191 -520 -179
-575 5 -20 3 -22 -5 -10 -8 12 -11 7 -11 -22 0 -20 -3 -43 -6 -52 -3 -9 -1
-16 4 -16 6 0 13 12 15 28 l4 27 2 -28 c0 -16 -5 -30 -14 -33 -26 -10 -16 -21
15 -16 26 4 32 0 41 -26 6 -17 24 -37 44 -48 28 -15 33 -23 29 -41 -4 -13 -2
-23 4 -23 14 0 25 54 17 82 -5 18 -4 20 4 8 9 -12 11 -11 11 7 0 29 63 236
105 345 67 173 224 470 361 681 35 54 64 104 64 111 0 7 -22 76 -48 152 -27
76 -51 146 -54 154 -3 10 -25 -16 -61 -71z"/>
<path d="M2460 3582 c-201 -303 -345 -585 -430 -842 -24 -70 -60 -264 -59
-310 1 -31 2 -29 10 15 17 96 18 97 42 91 12 -3 16 -3 9 0 -10 4 -10 9 -2 19
12 15 44 9 34 -6 -3 -5 0 -9 5 -9 6 0 11 5 11 11 0 8 5 8 15 -1 8 -7 15 -20
15 -28 0 -14 -2 -13 -12 1 -12 15 -13 14 -14 -14 -1 -17 2 -25 6 -19 5 8 9 7
14 -5 8 -23 8 -25 -5 -22 -6 1 -14 -5 -16 -13 -4 -13 -3 -13 7 0 9 12 10 8 6
-20 l-6 -35 13 32 c6 18 20 38 29 45 9 7 19 24 21 38 2 14 9 37 15 52 6 15 10
33 8 40 -1 7 -1 9 2 5 2 -4 23 34 46 85 77 170 191 374 319 568 l69 105 -48
142 c-27 79 -51 143 -54 143 -3 0 -25 -31 -50 -68z"/>
<path d="M2563 3143 c-102 -151 -223 -359 -280 -482 -25 -53 -49 -106 -55
-118 -6 -11 -7 -26 -4 -32 4 -6 2 -11 -3 -11 -16 0 -13 -16 5 -35 13 -13 14
-16 3 -15 -33 5 -38 0 -29 -29 4 -16 13 -38 20 -48 11 -17 11 -17 5 1 -7 22 9
36 43 36 19 0 21 -4 16 -24 -6 -27 11 -45 20 -20 8 21 29 6 23 -17 -3 -11 -1
-17 4 -13 5 3 9 11 9 17 0 34 209 373 335 542 28 39 55 75 58 81 6 10 -75 269
-87 281 -2 2 -40 -49 -83 -114z"/>
<path d="M1310 2547 c-6 -35 -11 -70 -9 -78 1 -8 -1 -22 -5 -31 -4 -9 -6 -95
-4 -190 4 -162 7 -180 38 -280 19 -62 37 -105 43 -101 6 3 7 1 3 -5 -8 -13 34
-103 45 -96 5 3 11 -7 15 -21 3 -14 11 -22 17 -18 6 4 7 1 3 -6 -9 -14 22 -53
36 -45 4 3 7 2 6 -3 -5 -14 46 -74 59 -69 8 3 10 -1 6 -12 -3 -9 -3 -14 1 -10
4 3 21 -8 37 -25 22 -25 31 -29 38 -18 5 8 11 9 15 3 3 -6 1 -12 -6 -14 -14
-5 86 -68 107 -68 8 0 15 -4 15 -8 0 -12 129 -64 141 -57 5 4 9 2 9 -4 0 -12
133 -34 162 -26 18 5 20 4 8 -4 -14 -10 41 -16 135 -14 158 3 179 5 160 14
-15 6 -9 8 20 4 44 -6 217 37 223 55 2 5 8 8 12 5 5 -3 7 4 5 16 -3 15 0 19
11 15 9 -3 21 -6 27 -7 7 0 3 -4 -8 -9 -13 -6 -15 -9 -5 -9 8 0 22 3 30 9 11
7 9 11 -13 19 -40 16 -23 34 24 28 23 -3 37 -1 33 4 -3 6 5 7 22 3 19 -5 25
-4 20 5 -4 6 -2 11 3 11 6 0 11 8 11 19 0 14 5 17 27 13 27 -5 27 -5 6 -15
-12 -5 -24 -16 -27 -23 -3 -9 6 -6 24 7 16 12 27 26 24 30 -2 4 1 11 7 15 8 4
7 9 -2 16 -10 6 -7 7 9 3 16 -5 22 -2 22 9 0 9 -7 16 -15 16 -8 0 -15 4 -15 9
0 13 33 7 38 -7 2 -7 8 -12 14 -12 8 0 6 17 -9 58 -3 6 0 12 6 12 6 0 11 -7
11 -15 0 -8 5 -15 11 -15 6 0 9 7 5 15 -3 8 0 15 5 15 7 0 9 -8 5 -20 -3 -11
-9 -30 -12 -42 -5 -21 -4 -22 9 -5 8 9 20 17 27 17 9 0 10 3 1 13 -16 20 -2
28 23 15 18 -10 19 -9 8 4 -11 13 -10 16 4 14 9 0 19 5 21 12 3 8 -7 12 -31
12 -29 0 -36 4 -36 20 0 15 7 20 29 20 16 0 36 3 44 6 12 4 15 -1 13 -20 -2
-15 1 -29 7 -33 6 -3 7 -1 3 5 -6 11 1 20 39 47 20 14 20 14 -2 12 -12 0 -19
-5 -17 -9 3 -4 1 -8 -4 -8 -11 0 -73 73 -86 101 -9 20 -46 27 -46 9 0 -5 -12
-10 -27 -9 l-28 0 23 16 c32 22 30 76 -3 107 -14 13 -25 28 -24 32 3 20 -2 28
-10 15 -7 -11 -11 -5 -16 22 -4 19 -4 41 1 48 4 8 3 10 -4 5 -7 -4 -12 -26
-12 -48 0 -80 -8 -32 -14 86 -5 110 -17 153 -36 141 -5 -3 -6 5 -3 17 l5 23
-16 -23 c-10 -12 -14 -27 -10 -34 4 -6 3 -8 -4 -4 -13 8 -108 -120 -105 -142
1 -10 0 -11 -3 -5 -3 8 -38 -19 -89 -70 -67 -67 -81 -85 -71 -97 9 -13 9 -13
-6 -2 -14 11 -23 8 -65 -22 -46 -34 -167 -99 -188 -101 -5 0 -9 -6 -8 -13 2
-6 -3 -9 -10 -6 -8 3 -49 -5 -93 -17 -104 -29 -268 -29 -366 0 -64 18 -142 57
-182 90 -14 12 -17 12 -11 2 5 -10 4 -12 -3 -7 -7 4 -12 12 -12 17 0 6 -20 34
-45 62 -25 29 -60 81 -78 117 -17 36 -34 67 -37 70 -25 23 -67 301 -64 428 1
45 1 82 -1 82 -1 0 -8 -29 -15 -63z"/>
<path d="M1625 1003 c-124 -37 -211 -147 -237 -299 -22 -135 25 -242 132 -297
52 -27 60 -28 160 -24 124 4 169 21 246 90 74 66 107 144 112 264 4 85 2 98
-22 147 -44 91 -136 137 -270 135 -39 0 -93 -7 -121 -16z m183 -83 c45 -27 54
-60 50 -165 -3 -72 -10 -102 -32 -150 -54 -118 -133 -169 -210 -134 -109 50
-55 378 74 446 53 28 76 29 118 3z"/>
<path d="M1105 988 c-3 -13 -20 -107 -39 -210 -28 -159 -37 -192 -60 -223 -36
-46 -66 -66 -114 -72 -35 -5 -41 -9 -51 -43 -6 -20 -11 -40 -11 -44 0 -12 132
-6 201 10 85 19 144 61 176 124 19 39 93 405 93 463 0 15 -12 17 -95 17 -90 0
-95 -1 -100 -22z"/>
<path d="M2226 983 c-3 -16 -17 -93 -31 -173 -33 -196 -64 -370 -70 -397 -5
-23 -4 -23 93 -23 l99 0 22 127 c13 71 34 187 46 258 13 72 27 154 31 183 l7
52 -96 0 -95 0 -6 -27z"/>
<path d="M3373 999 c-7 -7 -13 -19 -13 -26 0 -8 -14 -14 -37 -14 -35 -2 -35
-2 -8 -6 16 -3 33 -10 37 -16 6 -9 8 -8 8 2 0 9 4 10 13 4 6 -6 32 -13 57 -17
95 -15 144 -71 144 -166 -2 -160 -96 -262 -258 -277 -71 -6 -113 -30 -137 -75
-11 -21 -10 -21 132 -15 208 9 295 38 381 128 57 61 88 144 88 236 0 134 -71
215 -210 241 -83 15 -183 15 -197 1z"/>
</g>
</svg>
