<?xml version="1.0" standalone="no"?>
<!DOCTYPE svg PUBLIC "-//W3C//DTD SVG 20010904//EN"
 "http://www.w3.org/TR/2001/REC-SVG-20010904/DTD/svg10.dtd">
<svg version="1.0" xmlns="http://www.w3.org/2000/svg"
 width="512.000000pt" height="512.000000pt" viewBox="0 0 512.000000 512.000000"
 preserveAspectRatio="xMidYMid meet">

<g transform="translate(0.000000,512.000000) scale(0.100000,-0.100000)"
fill="#000000" stroke="none">
<path d="M2312 5025 c-104 -23 -207 -80 -291 -162 -46 -44 -100 -84 -137 -103
-115 -56 -191 -168 -200 -297 -4 -54 1 -92 24 -185 l29 -118 -28 -56 c-50 -99
-35 -189 46 -269 56 -57 102 -75 187 -75 l55 0 5 -89 c4 -72 11 -102 36 -154
28 -61 85 -129 144 -172 l28 -20 -17 -65 c-9 -36 -17 -66 -18 -68 -1 -2 -18 6
-36 17 -19 10 -65 30 -104 42 -64 21 -95 23 -340 28 l-270 6 -31 340 -31 340
55 60 c94 102 122 206 86 321 -26 84 -115 172 -198 198 -107 34 -229 5 -319
-74 -19 -16 -49 -58 -68 -92 l-34 -63 -3 -667 -3 -668 -50 -50 c-107 -107
-129 -220 -81 -412 l29 -118 -28 -56 c-50 -99 -35 -189 46 -269 56 -57 102
-75 187 -75 l55 0 5 -89 c4 -72 11 -102 36 -154 28 -61 85 -129 144 -172 l28
-20 -17 -65 c-9 -36 -17 -66 -18 -67 0 -2 -41 -14 -91 -28 -162 -47 -315 -130
-454 -246 -34 -28 -63 -49 -64 -47 -2 1 -12 104 -23 228 l-19 225 54 60 c94
102 122 207 86 321 -26 84 -115 172 -198 198 -107 34 -229 5 -319 -74 -19 -16
-49 -58 -68 -92 l-34 -63 0 -685 0 -685 24 -60 c18 -44 42 -78 90 -126 88 -87
150 -113 276 -114 93 0 95 1 238 73 4 2 7 -51 7 -117 l0 -121 1840 0 1840 0 0
121 c0 66 3 119 8 117 142 -72 144 -73 237 -73 126 1 188 27 276 114 48 48 72
82 90 126 l24 60 0 680 0 680 -26 55 c-36 77 -77 121 -151 161 -57 30 -71 33
-148 34 -73 0 -92 -4 -135 -27 -27 -14 -66 -42 -84 -62 -19 -20 -38 -36 -42
-36 -4 0 -15 21 -24 47 -13 36 -19 100 -25 253 -7 181 -11 215 -34 285 -36
114 -89 198 -181 290 -91 91 -175 144 -290 182 -79 26 -85 27 -350 27 -148 1
-288 -1 -310 -3 -28 -3 -67 6 -125 27 -47 17 -103 36 -126 42 -39 10 -40 11
-57 77 l-16 68 27 20 c59 44 116 111 144 172 25 52 32 82 36 154 l5 89 55 0
c85 0 131 18 187 75 79 78 95 166 50 262 l-24 53 25 97 c43 165 22 329 -59
473 -39 71 -166 198 -237 237 -127 71 -156 76 -465 79 -213 3 -295 0 -343 -11z
m-1036 -641 c61 -29 92 -93 79 -161 -5 -28 -26 -56 -83 -115 l-76 -78 33 -368
c17 -202 34 -379 37 -393 4 -23 -1 -29 -60 -58 -35 -17 -87 -52 -115 -77 l-51
-46 0 581 c0 501 2 587 15 618 21 50 42 72 90 94 50 23 87 24 131 3z m1123
-241 c9 -17 11 -17 45 0 53 25 261 25 275 0 9 -17 11 -17 45 0 25 12 62 17
117 17 l80 0 -3 -272 c-3 -244 -5 -277 -22 -308 -26 -49 -64 -88 -111 -113
-38 -21 -54 -22 -265 -22 -211 0 -227 1 -265 22 -47 25 -85 64 -111 113 -17
31 -19 64 -22 308 l-3 272 115 0 c99 0 116 -2 125 -17z m-399 -143 l0 -80 -45
0 c-58 0 -91 16 -106 51 -9 22 -9 36 0 58 15 36 43 49 104 50 l47 1 0 -80z
m1234 69 c35 -16 52 -61 37 -98 -15 -35 -48 -51 -106 -51 l-45 0 0 80 0 80 45
0 c24 0 55 -5 69 -11z m-465 -833 c6 -25 11 -51 11 -59 0 -24 -114 -50 -220
-50 -106 0 -220 26 -220 50 0 8 5 34 11 59 l11 44 198 0 198 0 11 -44z m191
-215 c24 -7 24 -8 -21 -38 -63 -44 -157 -148 -202 -224 -72 -122 -89 -197 -97
-429 -6 -174 -11 -213 -29 -261 -26 -67 -67 -132 -114 -177 l-35 -34 39 -91
c69 -161 185 -310 305 -393 l54 -38 -57 -30 c-67 -36 -139 -84 -201 -134 l-42
-34 -33 26 c-132 107 -299 197 -451 241 -50 14 -91 26 -91 28 -1 1 -9 31 -18
67 l-16 65 27 19 c57 41 115 111 144 173 25 52 32 82 36 154 l5 89 55 0 c85 0
131 18 188 75 79 78 95 179 45 275 l-21 41 21 67 c45 145 33 323 -30 454 -16
35 -29 63 -28 64 1 1 22 -2 47 -6 109 -21 282 -3 389 40 48 20 88 23 131 11z
m891 -89 c165 -55 308 -198 360 -361 17 -53 23 -106 29 -266 6 -156 12 -213
28 -262 17 -54 67 -151 105 -206 10 -14 6 -30 -28 -95 -55 -108 -180 -232
-291 -289 -74 -39 -83 -41 -116 -31 -34 10 -35 12 -58 108 l-23 97 60 61 c33
33 76 91 96 130 56 106 67 169 67 384 l0 186 -72 12 c-280 45 -525 116 -721
208 l-107 50 -54 -60 c-68 -74 -121 -174 -146 -274 -25 -96 -27 -279 -5 -373
22 -92 79 -193 148 -263 l60 -61 -23 -98 c-23 -98 -23 -98 -59 -107 -32 -8
-45 -4 -116 32 -98 49 -231 177 -288 276 -44 76 -45 91 -13 133 39 51 85 157
101 233 9 42 15 126 15 215 0 113 5 164 20 224 51 200 201 352 401 405 66 18
101 19 319 17 220 -3 252 -5 311 -25z m-2416 -506 c144 -71 300 -106 467 -106
l99 0 -3 -232 c-3 -204 -5 -237 -22 -268 -26 -49 -64 -88 -111 -113 -38 -21
-54 -22 -265 -22 -211 0 -227 1 -265 22 -47 25 -85 64 -111 113 -17 31 -19 64
-22 286 l-3 250 78 52 c43 29 80 52 83 52 3 0 36 -15 75 -34z m2145 -99 c69
-20 163 -43 210 -52 47 -9 95 -18 108 -21 21 -4 22 -9 22 -107 0 -165 -33
-261 -121 -349 -154 -154 -405 -153 -559 2 -85 84 -120 181 -120 329 0 99 13
170 46 240 44 97 38 96 172 41 64 -26 173 -63 242 -83z m-2540 -87 l0 -80 -45
0 c-58 0 -91 16 -106 51 -9 22 -9 36 0 58 15 36 43 49 104 50 l47 1 0 -80z
m1234 69 c35 -16 52 -61 37 -98 -15 -35 -48 -51 -106 -51 l-45 0 0 80 0 80 45
0 c24 0 55 -5 69 -11z m-1798 -325 c61 -29 92 -93 79 -161 -5 -28 -26 -56 -82
-115 l-76 -77 7 -88 c4 -48 9 -109 13 -135 l6 -48 -92 0 -91 0 0 245 c0 301 9
332 105 376 50 23 87 24 131 3z m4291 1 c50 -21 72 -42 94 -90 16 -35 19 -69
19 -287 l0 -248 -91 0 -92 0 6 48 c4 26 9 87 13 135 l7 88 -76 77 c-97 100
-111 157 -57 232 39 55 110 73 177 45z m-246 -382 l36 -38 -20 -225 c-11 -124
-21 -226 -22 -228 -2 -2 -41 28 -88 66 -47 37 -122 89 -166 113 l-80 46 64 47
c71 52 161 147 203 213 15 24 29 43 32 43 3 0 22 -17 41 -37z m-1111 -72 c66
-15 167 -13 234 4 33 9 61 14 63 11 6 -6 33 -109 33 -127 0 -47 -254 -70 -379
-34 l-63 18 6 36 c13 80 27 112 44 107 9 -3 37 -10 62 -15z m-1601 -55 c6 -25
11 -51 11 -59 0 -24 -114 -50 -220 -50 -106 0 -220 26 -220 50 0 8 5 34 11 59
l11 44 198 0 198 0 11 -44z m-480 -226 c141 -55 333 -63 476 -20 39 12 87 27
107 33 32 9 50 8 115 -12 184 -54 344 -152 478 -292 169 -178 267 -396 290
-646 l7 -73 -161 0 -161 0 0 240 0 240 -80 0 -80 0 0 -240 0 -240 -262 0 -262
0 161 163 c141 143 163 169 182 222 18 47 22 74 18 126 -17 258 -316 379 -511
208 l-46 -41 -46 41 c-124 109 -304 106 -422 -8 -85 -83 -114 -213 -71 -326
19 -53 41 -79 182 -222 l161 -163 -262 0 -262 0 0 240 0 240 -80 0 -80 0 0
-68 c0 -56 -4 -74 -26 -107 -69 -103 -126 -139 -225 -140 -56 0 -73 4 -115 30
-30 19 -60 49 -79 79 l-30 49 -3 319 -3 318 98 0 99 0 21 -241 c12 -133 23
-242 25 -244 2 -2 37 0 78 3 l75 7 -3 81 -4 82 68 71 c123 131 264 221 440
280 105 36 127 37 193 11z m1919 1 c168 -66 362 -66 548 1 55 20 67 21 115 10
165 -38 344 -139 482 -274 l99 -96 -3 -84 -4 -83 75 -7 c41 -3 76 -5 78 -3 2
2 13 111 25 244 l21 241 99 0 98 0 -3 -318 -3 -319 -30 -49 c-19 -30 -49 -60
-79 -79 -89 -55 -215 -37 -287 42 -63 68 -79 104 -79 175 l0 68 -80 0 -80 0 0
-240 0 -240 -262 0 -262 0 161 163 c141 143 163 169 182 222 18 47 22 74 18
126 -17 259 -315 380 -511 208 l-46 -41 -46 41 c-196 172 -498 49 -512 -209
-3 -50 2 -79 19 -125 19 -53 41 -79 182 -222 l161 -163 -182 0 -182 0 0 43 c0
117 -52 326 -115 463 -34 75 -126 224 -150 244 -26 22 -17 37 53 89 87 66 196
122 308 160 105 36 127 37 192 12z m-1864 -382 c26 -7 64 -34 112 -80 98 -92
110 -92 208 0 50 47 86 73 113 80 105 28 200 -66 173 -171 -10 -37 -40 -71
-201 -233 l-189 -190 -189 190 c-161 162 -191 196 -201 233 -18 71 19 143 90
171 33 13 38 13 84 0z m1920 0 c26 -7 64 -34 112 -80 98 -92 110 -92 208 0 50
47 86 73 113 80 105 28 200 -66 173 -171 -10 -37 -40 -71 -201 -233 l-189
-190 -189 190 c-161 162 -191 196 -201 233 -18 71 19 143 90 171 33 13 38 13
84 0z"/>
</g>
</svg>
